<svg width="389" height="467" viewBox="0 0 389 467" fill="none" xmlns="http://www.w3.org/2000/svg">
<circle cx="362.617" cy="161.673" r="4.37661" fill="white" style="fill:white;fill:white;fill-opacity:1;"/>
<circle cx="104.322" cy="35.3224" r="3.16422" transform="rotate(30 104.322 35.3224)" fill="white" style="fill:white;fill:white;fill-opacity:1;"/>
<circle cx="51.7653" cy="9.76503" r="2.02414" transform="rotate(30 51.7653 9.76503)" fill="white" style="fill:white;fill:white;fill-opacity:1;"/>
<circle cx="2.76628" cy="46.765" r="2.02414" transform="rotate(30 2.76628 46.765)" fill="white" style="fill:white;fill:white;fill-opacity:1;"/>
<circle cx="86.6149" cy="357.928" r="2.02414" transform="rotate(30 86.6149 357.928)" fill="white" style="fill:white;fill:white;fill-opacity:1;"/>
<circle cx="131.819" cy="346.627" r="2.02414" transform="rotate(30 131.819 346.627)" fill="white" style="fill:white;fill:white;fill-opacity:1;"/>
<circle cx="304.485" cy="329.596" r="1.38925" transform="rotate(30 304.485 329.596)" fill="white" style="fill:white;fill:white;fill-opacity:1;"/>
<circle cx="190.898" cy="436.898" r="1.38925" transform="rotate(30 190.898 436.898)" fill="white" style="fill:white;fill:white;fill-opacity:1;"/>
<circle cx="318.898" cy="464.898" r="1.38925" transform="rotate(30 318.898 464.898)" fill="white" style="fill:white;fill:white;fill-opacity:1;"/>
<circle cx="345.665" cy="255.354" r="1.38925" transform="rotate(30 345.665 255.354)" fill="white" style="fill:white;fill:white;fill-opacity:1;"/>
<circle cx="387.099" cy="255.354" r="1.38925" transform="rotate(30 387.099 255.354)" fill="white" style="fill:white;fill:white;fill-opacity:1;"/>
<circle cx="7.89815" cy="266.655" r="1.38925" transform="rotate(30 7.89815 266.655)" fill="white" style="fill:white;fill:white;fill-opacity:1;"/>
<circle cx="340.641" cy="73.2886" r="1.38925" transform="rotate(30 340.641 73.2886)" fill="white" style="fill:white;fill:white;fill-opacity:1;"/>
<circle cx="359.898" cy="28.8978" r="1.38925" transform="rotate(30 359.898 28.8978)" fill="white" style="fill:white;fill:white;fill-opacity:1;"/>
<circle cx="233.898" cy="1.89775" r="1.38925" transform="rotate(30 233.898 1.89775)" fill="white" style="fill:white;fill:white;fill-opacity:1;"/>
<circle cx="31.7546" cy="178.761" r="1.38925" transform="rotate(30 31.7546 178.761)" fill="white" style="fill:white;fill:white;fill-opacity:1;"/>
</svg>
