<svg width="418" height="453" viewBox="0 0 418 453" fill="none" xmlns="http://www.w3.org/2000/svg">
<path d="M-46.7911 -19L-46.7912 453M-4.2669 -19L-4.26692 453M38.2574 -19L38.2574 453M80.7816 -19L80.7816 453M123.306 -19L123.306 453M165.83 -19L165.83 453M208.354 -19L208.354 453M250.879 -19L250.879 453M293.403 -19L293.403 453M335.927 -19L335.927 453M378.452 -19L378.452 453M420.976 -19L420.976 453M463.5 -19L463.5 453M-47.5 451.392H462.812M-47.5 404.591H462.812M-47.5 357.79H462.812M-47.5 310.988H462.812M-47.5 264.187L462.812 264.187M-47.5 217.386L462.812 217.386M-47.5 170.585L462.812 170.585M-47.5 123.784H462.812M-47.5 76.9829H462.812M-47.5 30.1818H462.812M-47.5 -16.6193L462.812 -16.6193" stroke="url(#paint0_radial_412_53)" stroke-opacity="0.3" style="" stroke-width="1.06801"/>
<defs>
<radialGradient id="paint0_radial_412_53" cx="0" cy="0" r="1" gradientUnits="userSpaceOnUse" gradientTransform="translate(208.004 187.999) rotate(90.0004) scale(163 74238.2)">
<stop stop-color="white" style="stop-color:white;stop-opacity:1;"/>
<stop offset="1" stop-opacity="0.4" style="stop-color:black;stop-opacity:0.4;"/>
</radialGradient>
</defs>
</svg>
