<svg width="241" height="228" viewBox="0 0 241 228" fill="none" xmlns="http://www.w3.org/2000/svg">
<g filter="url(#filter0_d_139_158)">
<path d="M0.500854 113.178C4.45234 124.219 14.0844 133.924 25.6112 141.322C40.8262 151.088 59.819 157.163 74.9434 157.163H114.278H153.613C168.737 157.163 187.73 151.088 202.945 141.322C214.472 133.924 224.104 124.219 228.056 113.178L158.663 113.311C137.412 113.311 119.532 127.737 114.278 147.33C109.025 127.737 91.1443 113.311 69.8934 113.311L0.500854 113.178Z" fill="white"/>
</g>
<g filter="url(#filter1_d_139_158)">
<path d="M0.500854 169.296C4.45234 180.338 14.0844 190.042 25.6112 197.441C40.8262 207.207 59.819 213.282 74.9434 213.282H114.278H153.613C168.737 213.282 187.73 207.207 202.945 197.441C214.472 190.042 224.104 180.338 228.056 169.296L158.663 169.43C137.412 169.43 119.532 183.855 114.278 203.449C109.025 183.855 91.1443 169.43 69.8934 169.43L0.500854 169.296Z" fill="white"/>
</g>
<g filter="url(#filter2_d_139_158)">
<path d="M0.500854 44.924C4.45234 33.8822 14.0844 24.1779 25.6112 16.7792C40.8262 7.01318 59.819 0.938332 74.9434 0.938332H114.278H153.613C168.737 0.938332 187.73 7.01318 202.945 16.7792C214.472 24.1779 224.104 33.8822 228.056 44.924L158.663 44.7901C137.412 44.7901 119.532 30.3649 114.278 10.7714C109.025 30.3649 91.1443 44.7901 69.8934 44.7901L0.500854 44.924Z" fill="white"/>
</g>
<g filter="url(#filter3_d_139_158)">
<path d="M0.500854 101.042C4.45234 90.0004 14.0844 80.2961 25.6112 72.8974C40.8262 63.1314 59.819 57.0566 74.9434 57.0566H114.278H153.613C168.737 57.0566 187.73 63.1314 202.945 72.8974C214.472 80.2961 224.104 90.0004 228.056 101.042L158.663 100.908C137.412 100.908 119.532 86.4831 114.278 66.8896C109.025 86.4831 91.1443 100.908 69.8934 100.908L0.500854 101.042Z" fill="white"/>
</g>
<defs>
<filter id="filter0_d_139_158" x="0.500854" y="113.178" width="240.111" height="57.7976" filterUnits="userSpaceOnUse" color-interpolation-filters="sRGB">
<feFlood flood-opacity="0" result="BackgroundImageFix"/>
<feColorMatrix in="SourceAlpha" type="matrix" values="0 0 0 0 0 0 0 0 0 0 0 0 0 0 0 0 0 0 127 0" result="hardAlpha"/>
<feOffset dx="6.27813" dy="7.53376"/>
<feGaussianBlur stdDeviation="3.13907"/>
<feComposite in2="hardAlpha" operator="out"/>
<feColorMatrix type="matrix" values="0 0 0 0 0.329407 0 0 0 0 0.00888041 0 0 0 0 0.58125 0 0 0 1 0"/>
<feBlend mode="normal" in2="BackgroundImageFix" result="effect1_dropShadow_139_158"/>
<feBlend mode="normal" in="SourceGraphic" in2="effect1_dropShadow_139_158" result="shape"/>
</filter>
<filter id="filter1_d_139_158" x="0.500854" y="169.296" width="240.111" height="57.7976" filterUnits="userSpaceOnUse" color-interpolation-filters="sRGB">
<feFlood flood-opacity="0" result="BackgroundImageFix"/>
<feColorMatrix in="SourceAlpha" type="matrix" values="0 0 0 0 0 0 0 0 0 0 0 0 0 0 0 0 0 0 127 0" result="hardAlpha"/>
<feOffset dx="6.27813" dy="7.53376"/>
<feGaussianBlur stdDeviation="3.13907"/>
<feComposite in2="hardAlpha" operator="out"/>
<feColorMatrix type="matrix" values="0 0 0 0 0.329407 0 0 0 0 0.00888041 0 0 0 0 0.58125 0 0 0 1 0"/>
<feBlend mode="normal" in2="BackgroundImageFix" result="effect1_dropShadow_139_158"/>
<feBlend mode="normal" in="SourceGraphic" in2="effect1_dropShadow_139_158" result="shape"/>
</filter>
<filter id="filter2_d_139_158" x="0.500854" y="0.938324" width="240.111" height="57.7976" filterUnits="userSpaceOnUse" color-interpolation-filters="sRGB">
<feFlood flood-opacity="0" result="BackgroundImageFix"/>
<feColorMatrix in="SourceAlpha" type="matrix" values="0 0 0 0 0 0 0 0 0 0 0 0 0 0 0 0 0 0 127 0" result="hardAlpha"/>
<feOffset dx="6.27813" dy="7.53376"/>
<feGaussianBlur stdDeviation="3.13907"/>
<feComposite in2="hardAlpha" operator="out"/>
<feColorMatrix type="matrix" values="0 0 0 0 0.329407 0 0 0 0 0.00888041 0 0 0 0 0.58125 0 0 0 1 0"/>
<feBlend mode="normal" in2="BackgroundImageFix" result="effect1_dropShadow_139_158"/>
<feBlend mode="normal" in="SourceGraphic" in2="effect1_dropShadow_139_158" result="shape"/>
</filter>
<filter id="filter3_d_139_158" x="0.500854" y="57.0565" width="240.111" height="57.7976" filterUnits="userSpaceOnUse" color-interpolation-filters="sRGB">
<feFlood flood-opacity="0" result="BackgroundImageFix"/>
<feColorMatrix in="SourceAlpha" type="matrix" values="0 0 0 0 0 0 0 0 0 0 0 0 0 0 0 0 0 0 127 0" result="hardAlpha"/>
<feOffset dx="6.27813" dy="7.53376"/>
<feGaussianBlur stdDeviation="3.13907"/>
<feComposite in2="hardAlpha" operator="out"/>
<feColorMatrix type="matrix" values="0 0 0 0 0.329407 0 0 0 0 0.00888041 0 0 0 0 0.58125 0 0 0 1 0"/>
<feBlend mode="normal" in2="BackgroundImageFix" result="effect1_dropShadow_139_158"/>
<feBlend mode="normal" in="SourceGraphic" in2="effect1_dropShadow_139_158" result="shape"/>
</filter>
</defs>
</svg>
