<svg width="154" height="48" viewBox="0 0 154 48" fill="none" xmlns="http://www.w3.org/2000/svg">
<g clip-path="url(#clip0_139_80)">
<rect width="48" height="48" rx="24" fill="#00020E" style="fill:#00020E;fill:color(display-p3 0.0000 0.0078 0.0549);fill-opacity:1;"/>
<mask id="mask0_139_80" style="mask-type:alpha" maskUnits="userSpaceOnUse" x="9" y="28" width="29" height="24">
<path fill-rule="evenodd" clip-rule="evenodd" d="M23.17 35.6209C23.4295 35.7699 23.7489 35.7692 24.0077 35.6189L36.1094 28.5943C36.6671 28.2706 37.3661 28.672 37.3676 29.3169L37.4002 43.3099C37.4009 43.6091 37.2419 43.8861 36.9831 44.0363L23.6267 51.7892C23.6267 51.7892 23.6267 51.7892 23.6267 51.7892C23.6267 51.7893 23.6266 51.7893 23.6266 51.7893C23.6265 51.7893 23.6265 51.7893 23.6265 51.7893L23.6265 51.7893C23.6264 51.7893 23.6263 51.7893 23.6263 51.7892C23.6263 51.7891 23.6263 51.7891 23.6262 51.7891L10.2339 44.0986C9.97433 43.9495 9.81403 43.6734 9.81333 43.3741L9.78073 29.3811C9.77923 28.7362 10.4764 28.3316 11.0356 28.6527L23.17 35.6209Z" fill="#BECDD7" style="fill:#BECDD7;fill:color(display-p3 0.7470 0.8056 0.8417);fill-opacity:1;"/>
</mask>
<g mask="url(#mask0_139_80)">
<rect width="15.9276" height="15.9276" transform="matrix(0.867188 0.497981 0.00232995 0.999997 9.77734 27.9302)" fill="#E2853E" style="fill:#E2853E;fill:color(display-p3 0.8875 0.5227 0.2441);fill-opacity:1;"/>
<rect width="15.9276" height="15.9276" transform="matrix(-0.864858 0.502016 0.00232998 0.999997 37.3643 27.866)" fill="#F89F5B" style="fill:#F89F5B;fill:color(display-p3 0.9725 0.6235 0.3569);fill-opacity:1;"/>
<path d="M25.1732 41.489L25.4347 41.338L25.4347 42.0811L25.449 42.0729C25.4776 41.9824 25.5164 41.901 25.5655 41.8287C25.6159 41.7556 25.6819 41.6954 25.7637 41.6482C25.8236 41.6136 25.8781 41.5955 25.9271 41.594C25.9775 41.59 26.0204 41.6046 26.0558 41.6376C26.0912 41.6691 26.1185 41.7194 26.1376 41.7886C26.1566 41.8578 26.1662 41.9459 26.1662 42.0528C26.1662 42.1598 26.1566 42.2589 26.1376 42.3501C26.1185 42.4413 26.0912 42.5239 26.0558 42.5978C26.0204 42.6701 25.9775 42.7342 25.9271 42.7901C25.8781 42.8435 25.8236 42.8876 25.7637 42.9222C25.6819 42.9694 25.6159 42.9855 25.5655 42.9705C25.5164 42.9548 25.4776 42.9182 25.449 42.8608L25.4347 42.8691L25.4347 43.0838L25.1732 43.2348L25.1732 41.489ZM25.6533 42.7452C25.7296 42.7012 25.7882 42.6406 25.829 42.5636C25.8713 42.4857 25.8924 42.4004 25.8924 42.3076L25.8924 42.1142C25.8924 42.0214 25.8713 41.9604 25.829 41.9313C25.7882 41.9014 25.7296 41.9085 25.6533 41.9526C25.5934 41.9872 25.5416 42.0343 25.4981 42.0941C25.4558 42.1515 25.4347 42.2148 25.4347 42.284L25.4347 42.6662C25.4347 42.7354 25.4558 42.7751 25.4981 42.7853C25.5416 42.7932 25.5934 42.7798 25.6533 42.7452ZM26.8089 42.3187C26.7286 42.3651 26.6564 42.3918 26.5924 42.3989C26.5297 42.4052 26.4759 42.3938 26.431 42.3647C26.3874 42.3348 26.3533 42.2876 26.3288 42.2231C26.3057 42.1579 26.2941 42.0765 26.2941 41.979C26.2941 41.8814 26.3057 41.7867 26.3288 41.6947C26.3533 41.6019 26.3874 41.5154 26.431 41.4352C26.4759 41.3542 26.5297 41.2806 26.5924 41.2146C26.6564 41.1477 26.7286 41.0911 26.8089 41.0447C26.8879 40.9991 26.9595 40.9728 27.0235 40.9657C27.0875 40.9586 27.1413 40.97 27.1849 40.9999C27.2298 41.029 27.2639 41.0762 27.287 41.1415C27.3115 41.2059 27.3238 41.2869 27.3238 41.3844C27.3238 41.482 27.3115 41.5771 27.287 41.6699C27.2639 41.7619 27.2298 41.8484 27.1849 41.9294C27.1413 42.0096 27.0875 42.0832 27.0235 42.15C26.9595 42.2168 26.8879 42.2731 26.8089 42.3187ZM26.8089 42.0875C26.8839 42.0442 26.9431 41.9841 26.9867 41.907C27.0303 41.8284 27.0521 41.7379 27.0521 41.6357L27.0521 41.447C27.0521 41.3447 27.0303 41.2802 26.9867 41.2535C26.9431 41.2252 26.8839 41.2327 26.8089 41.2759C26.734 41.3192 26.6748 41.3801 26.6312 41.4588C26.5876 41.5358 26.5658 41.6255 26.5658 41.7277L26.5658 41.9164C26.5658 42.0187 26.5876 42.0839 26.6312 42.1123C26.6748 42.139 26.734 42.1307 26.8089 42.0875ZM27.4293 41.9322L27.8236 41.0865L27.4517 40.7019L27.7521 40.5285L27.8787 40.6701L27.9768 40.7833L27.9911 40.7751L28.0892 40.5486L28.2159 40.2608L28.4937 40.1003L28.1219 40.9001L28.5162 41.3047L28.2138 41.4793L28.0687 41.3177L27.9686 41.2032L27.9543 41.2115L27.8542 41.4415L27.7092 41.7706L27.4293 41.9322Z" fill="black" style="fill:black;fill:black;fill-opacity:1;"/>
<path d="M29.1324 40.9772C29.0166 41.0441 28.9165 41.0814 28.8321 41.0893C28.7476 41.0956 28.6816 41.0771 28.6339 41.0338L28.7871 40.785C28.8307 40.8148 28.8804 40.8286 28.9363 40.8262C28.9935 40.8231 29.0595 40.7999 29.1345 40.7566C29.1998 40.7189 29.2523 40.676 29.2918 40.6281C29.3313 40.5801 29.351 40.5302 29.351 40.4783C29.351 40.4342 29.3374 40.4122 29.3102 40.4122C29.2843 40.4114 29.2496 40.4197 29.206 40.437L29.0364 40.5042C28.9928 40.5215 28.9499 40.5353 28.9077 40.5455C28.8668 40.5534 28.83 40.5534 28.7973 40.5455C28.766 40.5368 28.7408 40.5176 28.7217 40.4877C28.7027 40.4562 28.6931 40.4106 28.6931 40.3509C28.6931 40.2235 28.734 40.1024 28.8157 39.9875C28.8988 39.8719 29.0125 39.7725 29.1569 39.6891C29.2591 39.6301 29.3456 39.5967 29.4164 39.5888C29.4886 39.5802 29.5478 39.5924 29.5942 39.6254L29.4573 39.879C29.4273 39.8586 29.3871 39.8487 29.3367 39.8495C29.2877 39.848 29.225 39.8692 29.1488 39.9132C29.0153 39.9903 28.9485 40.0768 28.9485 40.1727C28.9485 40.2168 28.9622 40.2396 28.9894 40.2412C29.0166 40.2412 29.0521 40.2325 29.0956 40.2152L29.2632 40.1492C29.3081 40.1311 29.351 40.1181 29.3919 40.1102C29.4341 40.1 29.4709 40.0992 29.5022 40.1079C29.5349 40.1157 29.5608 40.1346 29.5799 40.1645C29.5989 40.1944 29.6085 40.2392 29.6085 40.299C29.6085 40.4248 29.5662 40.5482 29.4818 40.6694C29.3987 40.7881 29.2822 40.8907 29.1324 40.9772ZM29.8283 39.3298L30.0898 39.1788L30.0898 39.3935L30.1041 39.3852C30.1327 39.2948 30.1716 39.2134 30.2206 39.1411C30.271 39.0679 30.3371 39.0078 30.4188 38.9606C30.4787 38.926 30.5332 38.9079 30.5822 38.9063C30.6326 38.9024 30.6755 38.9169 30.7109 38.95C30.7464 38.9814 30.7736 39.0318 30.7927 39.101C30.8117 39.1702 30.8213 39.2582 30.8213 39.3652C30.8213 39.4721 30.8117 39.5712 30.7927 39.6624C30.7736 39.7537 30.7464 39.8362 30.7109 39.9102C30.6755 39.9825 30.6326 40.0466 30.5822 40.1024C30.5332 40.1559 30.4787 40.1999 30.4188 40.2345C30.3371 40.2817 30.271 40.2978 30.2206 40.2829C30.1716 40.2672 30.1327 40.2306 30.1041 40.1732L30.0898 40.1815L30.0898 40.868L29.8283 41.019L29.8283 39.3298ZM30.3085 40.0576C30.3847 40.0136 30.4433 39.953 30.4842 39.8759C30.5264 39.7981 30.5475 39.7128 30.5475 39.62L30.5475 39.4265C30.5475 39.3337 30.5264 39.2728 30.4842 39.2437C30.4433 39.2138 30.3847 39.2209 30.3085 39.2649C30.2485 39.2995 30.1968 39.3467 30.1532 39.4065C30.1109 39.4639 30.0898 39.5272 30.0898 39.5964L30.0898 39.9786C30.0898 40.0478 30.1109 40.0875 30.1532 40.0977C30.1968 40.1056 30.2485 40.0922 30.3085 40.0576ZM31.8522 39.3786C31.7882 39.4156 31.7385 39.4262 31.7031 39.4105C31.6691 39.3924 31.6486 39.3523 31.6418 39.2902L31.6316 39.296C31.6125 39.3826 31.5751 39.4632 31.5192 39.5379C31.4634 39.611 31.3946 39.6712 31.3129 39.7183C31.2066 39.7797 31.1222 39.7962 31.0595 39.7679C30.9969 39.7396 30.9655 39.668 30.9655 39.5532C30.9655 39.3078 31.1215 39.0951 31.4334 38.915L31.6193 38.8077L31.6193 38.7275C31.6193 38.6504 31.603 38.6017 31.5703 38.5812C31.5376 38.5608 31.4845 38.5718 31.4109 38.6142C31.3442 38.6528 31.2904 38.6988 31.2495 38.7523C31.2087 38.8057 31.1739 38.8643 31.1453 38.928L30.9962 38.8679C31.0289 38.7814 31.0813 38.6945 31.1535 38.6072C31.2271 38.5175 31.3217 38.4393 31.4375 38.3724C31.5764 38.2922 31.6847 38.2674 31.7624 38.2981C31.8414 38.3264 31.8809 38.4145 31.8809 38.5623L31.8809 39.1356L32.0055 39.0637L32.0055 39.2902L31.8522 39.3786ZM31.4007 39.46C31.4634 39.4238 31.5151 39.3774 31.556 39.3208C31.5982 39.2618 31.6193 39.2033 31.6193 39.1451L31.6193 38.9823L31.4395 39.0861C31.2965 39.1687 31.225 39.2618 31.225 39.3656L31.225 39.4128C31.225 39.4616 31.2407 39.4895 31.272 39.4966C31.3033 39.5037 31.3462 39.4915 31.4007 39.46ZM32.6687 38.9356C32.5883 38.982 32.5161 39.0087 32.4521 39.0158C32.3881 39.0228 32.3336 39.0118 32.2887 38.9827C32.2451 38.9529 32.211 38.9057 32.1865 38.8412C32.1634 38.7759 32.1518 38.6945 32.1518 38.597C32.1518 38.4995 32.1634 38.4047 32.1865 38.3127C32.211 38.2199 32.2451 38.1334 32.2887 38.0532C32.3336 37.9722 32.3874 37.8987 32.4501 37.8326C32.5141 37.7658 32.5863 37.7092 32.6667 37.6628C32.7783 37.5983 32.8682 37.5731 32.9363 37.5873C33.0045 37.6014 33.0562 37.6423 33.0916 37.71L32.8894 37.9541C32.8703 37.9132 32.843 37.8873 32.8076 37.8763C32.7736 37.8629 32.7266 37.8735 32.6667 37.9081C32.589 37.953 32.5291 38.0135 32.4869 38.0898C32.446 38.1653 32.4256 38.2478 32.4256 38.3375L32.4256 38.5404C32.4256 38.6285 32.446 38.6874 32.4869 38.7173C32.5291 38.7449 32.5904 38.7354 32.6707 38.689C32.7334 38.6528 32.7831 38.6076 32.8199 38.5534C32.858 38.4983 32.8887 38.4366 32.9118 38.3682L33.108 38.3894C33.0726 38.4964 33.0188 38.5982 32.9466 38.6949C32.8757 38.7893 32.7831 38.8695 32.6687 38.9356ZM33.8161 38.2731C33.7317 38.3218 33.6568 38.3501 33.5914 38.358C33.526 38.3659 33.4708 38.3553 33.4259 38.3262C33.3823 38.2963 33.3489 38.2495 33.3258 38.1858C33.3026 38.1205 33.2911 38.0391 33.2911 37.9416C33.2911 37.8425 33.3026 37.747 33.3258 37.655C33.3503 37.5622 33.3844 37.4757 33.4279 37.3955C33.4715 37.3153 33.524 37.2425 33.5853 37.1772C33.6479 37.1112 33.7181 37.0557 33.7957 37.0109C33.872 36.9669 33.9408 36.9421 34.0021 36.9366C34.0634 36.9295 34.1151 36.9405 34.1573 36.9696C34.2009 36.9979 34.2343 37.0432 34.2574 37.1053C34.2806 37.1674 34.2922 37.2441 34.2922 37.3353L34.2922 37.4344L33.5526 37.8614L33.5526 37.8921C33.5526 37.9801 33.5764 38.0379 33.6241 38.0655C33.6718 38.0914 33.7385 38.0796 33.8243 38.0301C33.8897 37.9923 33.9455 37.9452 33.9918 37.8885C34.0395 37.8296 34.079 37.7659 34.1103 37.6974L34.2595 37.7835C34.2214 37.8701 34.1655 37.9573 34.092 38.0454C34.0198 38.1327 33.9278 38.2086 33.8161 38.2731ZM33.7977 37.2315C33.7242 37.274 33.6649 37.3349 33.62 37.4143C33.575 37.4938 33.5526 37.5775 33.5526 37.6656L33.5526 37.6821L34.0307 37.4061L34.0307 37.3848C34.0307 37.2968 34.0095 37.239 33.9673 37.2114C33.9265 37.1831 33.8699 37.1898 33.7977 37.2315Z" fill="black" fill-opacity="0.4" style="fill:black;fill:black;fill-opacity:0.4;"/>
<g opacity="0.5">
<path d="M5.74902 33.3447L6.19734 33.6036L6.19734 34.8775L6.22186 34.8917C6.27089 34.7933 6.33744 34.7306 6.4215 34.7036C6.5079 34.678 6.62114 34.7056 6.76124 34.7865C6.86398 34.8458 6.95738 34.9227 7.04144 35.0171C7.12784 35.1101 7.20139 35.2199 7.2621 35.3467C7.32281 35.4707 7.36951 35.6109 7.4022 35.7673C7.43489 35.9237 7.45123 36.0935 7.45123 36.2769C7.45123 36.4602 7.43489 36.6112 7.4022 36.7298C7.36951 36.8485 7.32281 36.9361 7.2621 36.9927C7.20139 37.0466 7.12784 37.0716 7.04144 37.0675C6.95738 37.0621 6.86398 37.0298 6.76124 36.9705C6.62114 36.8896 6.5079 36.7864 6.4215 36.6611C6.33744 36.537 6.27089 36.3975 6.22186 36.2425L6.19734 36.2283V36.5964L5.74902 36.3375L5.74902 33.3447ZM6.57211 36.4487C6.70287 36.5242 6.80327 36.5364 6.87332 36.4851C6.94571 36.4353 6.9819 36.3308 6.9819 36.1717V35.8401C6.9819 35.681 6.94571 35.5347 6.87332 35.4013C6.80327 35.2692 6.70287 35.1653 6.57211 35.0899C6.46937 35.0305 6.38064 35.009 6.30592 35.0251C6.23353 35.04 6.19734 35.1067 6.19734 35.2253V35.8805C6.19734 35.9992 6.23353 36.109 6.30592 36.2101C6.38064 36.3099 6.46937 36.3894 6.57211 36.4487Z" fill="black" style="fill:black;fill:black;fill-opacity:1;"/>
<path d="M8.55315 38.005C8.41538 37.9255 8.29163 37.8284 8.18188 37.7138C8.07447 37.6006 7.98224 37.4745 7.90519 37.3357C7.83047 37.1982 7.77209 37.0499 7.73006 36.8908C7.69037 36.7331 7.67052 36.5706 7.67052 36.4035C7.67052 36.2363 7.69037 36.0968 7.73006 35.9849C7.77209 35.8743 7.83047 35.7934 7.90519 35.7422C7.98224 35.6923 8.07447 35.6728 8.18188 35.6836C8.29163 35.6957 8.41538 35.7415 8.55315 35.8211C8.68858 35.8993 8.81116 35.9957 8.92091 36.1103C9.03065 36.2248 9.12289 36.3509 9.19761 36.4884C9.27466 36.6273 9.33303 36.7755 9.37273 36.9333C9.41476 37.0924 9.43577 37.2555 9.43577 37.4226C9.43577 37.5898 9.41476 37.7287 9.37273 37.8392C9.33303 37.9511 9.27466 38.032 9.19761 38.0819C9.12289 38.1331 9.03065 38.1526 8.92091 38.1405C8.81116 38.1284 8.68858 38.0832 8.55315 38.005ZM8.55315 37.6087C8.68157 37.6828 8.78314 37.697 8.85786 37.6511C8.93258 37.6026 8.96994 37.4907 8.96994 37.3155V36.9919C8.96994 36.8167 8.93258 36.663 8.85786 36.5309C8.78314 36.3961 8.68157 36.2916 8.55315 36.2174C8.42472 36.1433 8.32315 36.1305 8.24843 36.179C8.17371 36.2248 8.13635 36.3354 8.13635 36.5106V36.8342C8.13635 37.0094 8.17371 37.1645 8.24843 37.2993C8.32315 37.4314 8.42472 37.5345 8.55315 37.6087Z" fill="black" style="fill:black;fill:black;fill-opacity:1;"/>
<path d="M9.61654 38.5704L10.2925 37.9011L9.65506 36.5058L10.1699 36.8031L10.3871 37.2965L10.5552 37.6847L10.5797 37.6989L10.7478 37.5048L10.965 37.2621L11.4413 37.5371L10.8039 38.1721L11.4799 39.6462L10.9615 39.3469L10.7128 38.7828L10.5412 38.3884L10.5167 38.3743L10.3451 38.5704L10.0964 38.8475L9.61654 38.5704Z" fill="black" style="fill:black;fill:black;fill-opacity:1;"/>
</g>
</g>
<path d="M13.2726 40.6974C13.0741 40.5828 12.9025 40.4486 12.7577 40.295C12.6129 40.1386 12.4997 39.9761 12.418 39.8076L12.6807 39.6843C12.7554 39.8218 12.8406 39.9438 12.9363 40.0503C13.0344 40.1581 13.1477 40.2491 13.2761 40.3233C13.3882 40.388 13.4781 40.4183 13.5458 40.4143C13.6135 40.4102 13.6473 40.3637 13.6473 40.2747C13.6473 40.1992 13.624 40.1345 13.5773 40.0806C13.5329 40.028 13.4734 39.9734 13.3987 39.9168L13.108 39.6964C13.0332 39.6398 12.9597 39.5784 12.8873 39.5124C12.8173 39.445 12.7542 39.3722 12.6982 39.294C12.6445 39.2171 12.6013 39.1342 12.5686 39.0453C12.5359 38.9536 12.5195 38.8565 12.5195 38.7541C12.5195 38.5357 12.5896 38.409 12.7297 38.3739C12.8721 38.3402 13.0671 38.3948 13.3146 38.5377C13.4897 38.6388 13.638 38.7527 13.7594 38.8794C13.8832 39.0075 13.9847 39.1457 14.0641 39.294L13.8295 39.4578C13.7781 39.3634 13.7092 39.267 13.6228 39.1686C13.5388 39.0689 13.4314 38.9812 13.3006 38.9057C13.0718 38.7736 12.9574 38.7898 12.9574 38.9543C12.9574 39.0298 12.9807 39.0958 13.0274 39.1524C13.0741 39.2064 13.1348 39.2616 13.2095 39.3183L13.4967 39.5366C13.5738 39.5946 13.6473 39.6573 13.7174 39.7247C13.7898 39.7908 13.8528 39.8622 13.9065 39.9391C13.9626 40.0172 14.0069 40.1008 14.0396 40.1898C14.0723 40.2788 14.0887 40.3745 14.0887 40.477C14.0887 40.6927 14.0163 40.8207 13.8715 40.8612C13.7291 40.9003 13.5294 40.8457 13.2726 40.6974Z" fill="black" style="fill:black;fill:black;fill-opacity:1;"/>
<path d="M14.4656 39.2507L14.9139 39.5096V39.8776L14.9384 39.8918C14.9874 39.7933 15.054 39.7307 15.138 39.7037C15.2244 39.6781 15.3377 39.7057 15.4778 39.7866C15.5805 39.8459 15.6739 39.9228 15.758 40.0171C15.8444 40.1102 15.9179 40.22 15.9786 40.3467C16.0393 40.4708 16.086 40.611 16.1187 40.7674C16.1514 40.9237 16.1678 41.0936 16.1678 41.2769C16.1678 41.4603 16.1514 41.6113 16.1187 41.7299C16.086 41.8485 16.0393 41.9362 15.9786 41.9928C15.9179 42.0467 15.8444 42.0717 15.758 42.0676C15.6739 42.0622 15.5805 42.0299 15.4778 41.9705C15.3377 41.8897 15.2244 41.7865 15.138 41.6612C15.054 41.5371 14.9874 41.3976 14.9384 41.2426L14.9139 41.2284V42.4053L14.4656 42.1465V39.2507ZM15.2886 41.4488C15.4194 41.5243 15.5198 41.5365 15.5899 41.4852C15.6622 41.4353 15.6984 41.3309 15.6984 41.1718V40.8402C15.6984 40.6811 15.6622 40.5348 15.5899 40.4013C15.5198 40.2692 15.4194 40.1654 15.2886 40.0899C15.1859 40.0306 15.0972 40.009 15.0225 40.0252C14.9501 40.0401 14.9139 40.1068 14.9139 40.2254V40.8806C14.9139 40.9992 14.9501 41.1091 15.0225 41.2102C15.0972 41.31 15.1859 41.3895 15.2886 41.4488Z" fill="black" style="fill:black;fill:black;fill-opacity:1;"/>
<path d="M17.9352 43.3408C17.8254 43.2774 17.7402 43.1972 17.6795 43.1001C17.6211 43.0017 17.5861 42.8925 17.5744 42.7726L17.5569 42.7624C17.5242 42.873 17.46 42.937 17.3642 42.9545C17.2685 42.9694 17.1506 42.9363 17.0105 42.8555C16.8284 42.7503 16.6836 42.6115 16.5762 42.4389C16.4688 42.2663 16.4151 42.0816 16.4151 41.8848C16.4151 41.4642 16.6824 41.4083 17.2171 41.717L17.5359 41.901V41.7635C17.5359 41.6314 17.5078 41.5154 17.4518 41.4157C17.3958 41.3159 17.3047 41.2296 17.1786 41.1568C17.0642 41.0908 16.972 41.0631 16.9019 41.0739C16.8319 41.0847 16.7723 41.1164 16.7233 41.169L16.4676 40.7706C16.5237 40.687 16.6135 40.6419 16.7373 40.6351C16.8634 40.627 17.0257 40.6803 17.2241 40.7949C17.4623 40.9324 17.6479 41.1043 17.781 41.3105C17.9165 41.5154 17.9842 41.7446 17.9842 41.9981V42.9808L18.1978 43.1042V43.4924L17.9352 43.3408ZM17.1611 42.5865C17.2685 42.6485 17.3572 42.6714 17.4273 42.6553C17.4997 42.6377 17.5359 42.5791 17.5359 42.4793V42.2003L17.2277 42.0223C16.9825 41.8808 16.8599 41.899 16.8599 42.0769V42.1578C16.8599 42.2414 16.8867 42.3203 16.9404 42.3944C16.9942 42.4686 17.0677 42.5326 17.1611 42.5865Z" fill="black" style="fill:black;fill:black;fill-opacity:1;"/>
<path d="M19.3348 44.1974C19.197 44.1178 19.0733 44.0208 18.9635 43.9062C18.8538 43.7916 18.7604 43.6649 18.6833 43.526C18.6086 43.3885 18.5502 43.2402 18.5082 43.0812C18.4685 42.9234 18.4486 42.761 18.4486 42.5938C18.4486 42.4266 18.4685 42.2871 18.5082 42.1752C18.5502 42.0647 18.6086 41.9838 18.6833 41.9326C18.7604 41.8827 18.8526 41.8631 18.96 41.8739C19.0698 41.8861 19.1935 41.9319 19.3313 42.0114C19.5227 42.122 19.6769 42.2568 19.7936 42.4159C19.9104 42.5749 19.9991 42.7475 20.0598 42.9335L19.713 42.9517C19.6804 42.8439 19.6337 42.7455 19.5729 42.6565C19.5146 42.5662 19.434 42.4914 19.3313 42.432C19.1982 42.3552 19.0954 42.3404 19.0231 42.3875C18.953 42.4361 18.918 42.5372 18.918 42.6909V43.0387C18.918 43.1897 18.953 43.3312 19.0231 43.4633C19.0954 43.5941 19.2005 43.6993 19.3383 43.7788C19.4457 43.8408 19.5309 43.8617 19.594 43.8415C19.6593 43.8226 19.7119 43.7774 19.7516 43.706L20.0878 44.1307C20.0271 44.2439 19.9349 44.312 19.8111 44.3349C19.6897 44.3565 19.5309 44.3106 19.3348 44.1974Z" fill="black" style="fill:black;fill:black;fill-opacity:1;"/>
<path d="M21.3018 45.333C21.157 45.2495 21.0286 45.1497 20.9165 45.0338C20.8045 44.9178 20.7099 44.7904 20.6328 44.6516C20.5581 44.5141 20.5009 44.3678 20.4612 44.2128C20.4215 44.055 20.4017 43.8926 20.4017 43.7254C20.4017 43.5556 20.4215 43.4147 20.4612 43.3028C20.5032 43.1923 20.5616 43.1114 20.6363 43.0601C20.7111 43.0089 20.801 42.988 20.906 42.9975C21.0134 43.0082 21.1337 43.0521 21.2668 43.1289C21.3975 43.2044 21.5155 43.2981 21.6205 43.41C21.7256 43.5192 21.8143 43.6405 21.8867 43.774C21.9614 43.9088 22.0187 44.0523 22.0583 44.2047C22.098 44.357 22.1179 44.5114 22.1179 44.6678V44.8376L20.85 44.1056V44.1582C20.85 44.3092 20.8909 44.4554 20.9726 44.597C21.0543 44.7358 21.1687 44.8477 21.3158 44.9327C21.4279 44.9974 21.5236 45.027 21.603 45.0216C21.6847 45.0149 21.7525 44.9839 21.8062 44.9286L22.0618 45.3715C21.9965 45.4443 21.9007 45.4834 21.7746 45.4888C21.6509 45.4955 21.4933 45.4436 21.3018 45.333ZM21.2703 43.5111C21.1442 43.4383 21.0426 43.4255 20.9656 43.4727C20.8885 43.5198 20.85 43.6189 20.85 43.7699V43.7982L21.6696 44.2714V44.235C21.6696 44.084 21.6334 43.9432 21.561 43.8124C21.4909 43.683 21.394 43.5825 21.2703 43.5111Z" fill="black" style="fill:black;fill:black;fill-opacity:1;"/>
<path d="M23.5534 19.9344L37.3656 27.866L23.5905 35.862L9.77832 27.9303L23.5534 19.9344Z" fill="#EE8E45" style="fill:#EE8E45;fill:color(display-p3 0.9333 0.5584 0.2722);fill-opacity:1;"/>
<path d="M29.8306 16.3194L23.5732 19.9515L37.3849 27.8828L43.6422 24.2507C44.3282 23.8525 44.3267 23.2096 43.6389 22.8147L32.3178 16.3136C31.6301 15.9186 30.5165 15.9212 29.8306 16.3194Z" fill="#FBB27B" style="fill:#FBB27B;fill:color(display-p3 0.9833 0.7000 0.4835);fill-opacity:1;"/>
<path d="M3.5203 22.9083C2.83438 23.3065 2.83588 23.9494 3.52364 24.3443L9.79786 27.9473L23.5727 19.9516L17.2984 16.3486C16.6107 15.9537 15.4971 15.9563 14.8112 16.3544L3.5203 22.9083Z" fill="#FBB27B" style="fill:#FBB27B;fill:color(display-p3 0.9833 0.7000 0.4835);fill-opacity:1;"/>
<path d="M37.3846 27.883L23.61 35.8786L9.79862 27.9474L3.54126 31.5796C2.85534 31.9777 2.85684 32.6207 3.54461 33.0156L14.8657 39.5167C15.5534 39.9116 16.667 39.9091 17.3529 39.5109L23.61 35.8789L29.884 39.4817C30.5718 39.8767 31.6853 39.8741 32.3713 39.4759L43.6621 32.922C44.3481 32.5239 44.3466 31.8809 43.6588 31.486L37.3846 27.883Z" fill="#FBB27B" style="fill:#FBB27B;fill:color(display-p3 0.9833 0.7000 0.4835);fill-opacity:1;"/>
<ellipse cx="13.2759" cy="16.927" rx="2.52689" ry="6.04321" fill="white" style="fill:white;fill:white;fill-opacity:1;"/>
<ellipse cx="33.8659" cy="16.927" rx="2.52689" ry="6.04321" fill="white" style="fill:white;fill:white;fill-opacity:1;"/>
<mask id="mask1_139_80" style="mask-type:alpha" maskUnits="userSpaceOnUse" x="9" y="-1" width="29" height="37">
<path d="M37.3654 -0.906651L37.3654 27.866L23.5903 35.8619L9.77813 27.9303L9.77813 -0.90665L37.3654 -0.906651Z" fill="url(#paint0_linear_139_80)" style=""/>
</mask>
<g mask="url(#mask1_139_80)">
<path fill-rule="evenodd" clip-rule="evenodd" d="M30.3482 24.6697C32.721 22.7141 34.2338 19.7525 34.2338 16.4376C34.2338 10.5489 29.4601 5.77527 23.5715 5.77527C17.6829 5.77527 12.9092 10.5489 12.9092 16.4376C12.9092 19.6651 14.3433 22.5577 16.6089 24.5129C16.2695 24.6494 15.965 24.8223 15.683 25.0412C14.3433 26.0815 13.8859 27.8706 12.9711 31.4487L11.2518 38.1732C9.79896 43.8559 9.07252 46.6972 10.5588 48.6113C12.0451 50.5255 14.9779 50.5255 20.8433 50.5255H25.7703C31.6357 50.5255 34.5685 50.5255 36.0548 48.6113C37.5411 46.6972 36.8146 43.8559 35.3617 38.1732L33.6425 31.4487C32.7277 27.8706 32.2703 26.0815 30.9306 25.0412C30.7471 24.8988 30.5541 24.7758 30.3482 24.6697Z" fill="white" style="fill:white;fill:white;fill-opacity:1;"/>
</g>
<mask id="mask2_139_80" style="mask-type:alpha" maskUnits="userSpaceOnUse" x="12" y="10" width="23" height="13">
<ellipse cx="23.5711" cy="16.927" rx="10.6143" ry="6.04321" fill="black" style="fill:black;fill:black;fill-opacity:1;"/>
</mask>
<g mask="url(#mask2_139_80)">
<ellipse cx="23.5711" cy="16.927" rx="10.6143" ry="6.04321" fill="black" style="fill:black;fill:black;fill-opacity:1;"/>
<path d="M21.0658 10.4194L15.7772 23.1191" stroke="#565656" style="stroke:#565656;stroke:color(display-p3 0.3375 0.3375 0.3375);stroke-opacity:1;" stroke-width="1.13659"/>
<path d="M23.8498 10.6283L18.5612 23.3279" stroke="#565656" style="stroke:#565656;stroke:color(display-p3 0.3375 0.3375 0.3375);stroke-opacity:1;" stroke-width="0.527701"/>
<path d="M31.3656 10.8372L26.077 23.5368" stroke="#565656" style="stroke:#565656;stroke:color(display-p3 0.3375 0.3375 0.3375);stroke-opacity:1;" stroke-width="1.38014"/>
</g>
</g>
<path d="M56.3385 31.7142V29.6159H64.6494V25.6662L56.1328 24.9874V19.2068L58.0254 17.3142H66.83V19.4125H58.5191V23.1565L67.0357 23.8354V29.8216L65.1431 31.7142H56.3385Z" fill="white" style="fill:white;fill:white;fill-opacity:1;"/>
<path d="M69.3119 34.5942V20.1942H77.7873L79.8856 22.2925V29.6159L77.7873 31.7142H71.6982V34.5942H69.3119ZM77.4993 22.2514H71.6982V29.6571H77.4993V22.2514Z" fill="white" style="fill:white;fill:white;fill-opacity:1;"/>
<path d="M81.8628 29.6571V25.1314L89.7211 24.9256V22.2514H82.2743V20.1942H90.0503L92.1074 22.2514V31.7142H83.92L81.8628 29.6571ZM84.2491 26.8594V29.6982H89.7211V26.4479L84.2491 26.8594Z" fill="white" style="fill:white;fill:white;fill-opacity:1;"/>
<path d="M94.28 29.6982V22.2102L96.296 20.1942H103.784V22.3336H96.6662V29.5748H103.784V31.7142H96.296L94.28 29.6982Z" fill="white" style="fill:white;fill:white;fill-opacity:1;"/>
<path d="M105.389 29.6982V22.2102L107.405 20.1942H115.469V26.6125H107.776V29.6571H115.058V31.7142H107.405L105.389 29.6982ZM107.776 25.0902L113.309 24.8845V22.1691H107.776V25.0902Z" fill="white" style="fill:white;fill:white;fill-opacity:1;"/>
<path d="M117.647 31.7142V17.3142H120.033V20.1942H126.122L128.22 22.2925V29.6159L126.122 31.7142H117.647ZM120.033 29.6571H125.834V22.2514H120.033V29.6571Z" fill="white" style="fill:white;fill:white;fill-opacity:1;"/>
<path d="M130.28 29.6982V22.2102L132.296 20.1942H138.55L140.566 22.2102V29.6982L138.55 31.7142H132.296L130.28 29.6982ZM132.666 29.6982H138.179V22.2102H132.666V29.6982Z" fill="white" style="fill:white;fill:white;fill-opacity:1;"/>
<path d="M141.637 31.7142L144.764 25.5839L141.904 20.1942H144.579L146.8 24.7611H148.528L150.75 20.1942H153.424L150.565 25.5839L153.692 31.7142H151.018L148.714 26.8182H146.615L144.311 31.7142H141.637Z" fill="white" style="fill:white;fill:white;fill-opacity:1;"/>
<defs>
<linearGradient id="paint0_linear_139_80" x1="23.5532" y1="19.9344" x2="23.5903" y2="35.8619" gradientUnits="userSpaceOnUse">
<stop stop-color="#EE8E45" style="stop-color:#EE8E45;stop-color:color(display-p3 0.9333 0.5584 0.2722);stop-opacity:1;"/>
<stop offset="1" stop-color="#D37329" style="stop-color:#D37329;stop-color:color(display-p3 0.8292 0.4510 0.1624);stop-opacity:1;"/>
</linearGradient>
<clipPath id="clip0_139_80">
<rect width="48" height="48" rx="24" fill="white" style="fill:white;fill:white;fill-opacity:1;"/>
</clipPath>
</defs>
</svg>
